# xmcd
#
# Track frame offsets:
#	182
#	18310
#	39035
#	59625
#	81620
#	100917
#	115277
#	140205
#	165222
#	183170
#	212432
#	230862
#	250272
#	273887
# Disc length: 4304 seconds
# Revision: 4
# Processed by: cddbd v1.5.2PL0 Copyright (c) Steve Scherf et al.
#
# Submitted via: libkcddb 0.31
#
DISCID=bf10ce0e
DTITLE=Duke Robillard - Plays Blues: The Rounder Years
DYEAR=1997
DGENRE=Blues
TTITLE0=Down By The Delta
TTITLE1=You Got Me
TTITLE2=If This Is Love
TTITLE3=Judgement Day
TTITLE4=The High Cost Of Loving
TTITLE5=She Made My Mind
TTITLE6=You're The One I Adore
TTITLE7=Don't Come Back
TTITLE8=Anything It Takes
TTITLE9=Duke's Mood
TTITLE10=Just A Human
TTITLE11=Let Me Love You
TTITLE12=Just Kiss Me
TTITLE13=I Think You Know
EXTD=
EXTT0=
EXTT1=
EXTT2=
EXTT3=
EXTT4=
EXTT5=
EXTT6=
EXTT7=
EXTT8=
EXTT9=
EXTT10=
EXTT11=
EXTT12=
EXTT13=
PLAYORDER=
